 <svg xmlns="http://www.w3.org/2000/svg" x="0px" y="0px" width="24" height="24" viewBox="0 0 226 226"
                    style=" fill:#000000;">
                    <g fill="none" fill-rule="nonzero" stroke="none" stroke-width="1" stroke-linecap="butt"
                        stroke-linejoin="miter" stroke-miterlimit="10" stroke-dasharray="" stroke-dashoffset="0"
                        font-family="none" font-weight="none" font-size="none" text-anchor="none"
                        style="mix-blend-mode: normal">
                        <path d="M0,226v-226h226v226z" fill="none"></path>
                        <g fill="#2ecc71">
                            <path
                                d="M113,9.41667c-57.08854,0 -103.58333,46.49479 -103.58333,103.58333c0,57.08854 46.49479,103.58333 103.58333,103.58333c57.08854,0 103.58333,-46.49479 103.58333,-103.58333c0,-57.08854 -46.49479,-103.58333 -103.58333,-103.58333zM113,28.25c46.89942,0 84.75,37.85058 84.75,84.75c0,46.89942 -37.85058,84.75 -84.75,84.75c-46.89942,0 -84.75,-37.85058 -84.75,-84.75c0,-46.89942 37.85058,-84.75 84.75,-84.75zM163.90885,77.09896l-60.32552,60.03125l-30.89844,-30.89844l-13.53646,13.53646l37.66667,37.66667l6.76823,6.47396l6.76823,-6.47396l66.79948,-67.09375z">
                            </path>
                        </g>
                    </g>
                </svg>